<?xml version="1.0" ?><svg id="Layer_1" style="enable-background:new 0 0 100 100;" version="1.1" viewBox="0 0 100 100" xml:space="preserve" xmlns="http://www.w3.org/2000/svg" xmlns:xlink="http://www.w3.org/1999/xlink"><g><path d="M71.5,42c-2,0-4-0.4-5.8-1.3c-0.5-0.2-1-0.5-1.4-0.8l-0.6-0.4l0.1-0.7c0.2-1,0.3-2.1,0.3-3.1c0-4.4-1.9-8.5-5.2-11.3   l-0.5-0.5l0.2-0.7c2-5.3,7.2-8.9,12.9-8.9c7.6,0,13.8,6.2,13.8,13.8c0,5.3-3.1,10.2-7.9,12.5C75.5,41.6,73.5,42,71.5,42z    M65.9,38.6c0.2,0.1,0.4,0.2,0.6,0.3c3.1,1.5,6.9,1.5,10,0c4.1-1.9,6.8-6.1,6.8-10.7c0-6.5-5.3-11.8-11.8-11.8   c-4.7,0-8.9,2.8-10.8,7c3.4,3.2,5.4,7.6,5.4,12.3C66.1,36.8,66.1,37.7,65.9,38.6z"/></g><g><path d="M72.7,68.5l-0.2-0.8c-1.7-7.9-8.3-14.4-16.7-16.6l-2.7-0.7l2.5-1.2c3.8-1.8,6.7-5.1,7.9-9.2l0.1-0.5l0.5-0.2   c0.5-0.2,1.1-0.4,1.7-0.5l0.3-0.1l0.3,0.2c3.1,1.5,6.9,1.5,10,0l0.3-0.2l0.3,0.1c9,2.3,15.3,10,15.3,18.7c0,10.9-10.1,11-18.9,11   L72.7,68.5z M58.6,49.8c7.8,2.8,13.8,9.1,15.7,16.6c10.1-0.1,16.1-0.8,16.1-9c0-7.6-5.5-14.4-13.4-16.7c-3.5,1.5-7.5,1.5-11,0   c-0.2,0.1-0.5,0.1-0.7,0.2C64.1,44.7,61.7,47.8,58.6,49.8z"/></g><g><path d="M28.5,42c-2,0-4-0.4-5.8-1.3c-4.8-2.3-7.9-7.1-7.9-12.5c0-7.6,6.2-13.8,13.8-13.8c5.4,0,10.4,3.2,12.6,8.1l0.3,0.7   l-0.7,0.5c-3.8,2.8-6.1,7.2-6.1,12c0,1.2,0.2,2.5,0.5,3.6l0.2,0.7l-0.6,0.4c-0.1,0-0.2,0.1-0.2,0.1C32.5,41.6,30.5,42,28.5,42z    M28.5,16.5c-6.5,0-11.8,5.3-11.8,11.8c0,4.5,2.7,8.7,6.8,10.7c2.9,1.4,6.4,1.5,9.4,0.2c-0.2-1.1-0.3-2.2-0.3-3.3   c0-5.1,2.3-9.9,6.3-13.1C36.9,18.9,32.9,16.5,28.5,16.5z"/></g><g><path d="M26.1,68.5l-0.8,0c-7.9,0-17.7-0.1-17.7-11c0-8.7,6.3-16.3,15.3-18.7l0.3-0.1l0.3,0.2c3.1,1.5,6.9,1.5,10,0l0.3-0.2   l1.1,0.3l0.1,0.5c1.1,4.2,4.1,7.7,8,9.6l2.5,1.2l-2.7,0.7c-8.4,2.2-15,8.7-16.7,16.6L26.1,68.5z M23,40.9   c-7.9,2.2-13.4,9-13.4,16.7c0,7.3,4.8,8.8,14.9,9c1.9-7.5,7.9-13.8,15.7-16.6c-3.1-2.1-5.5-5.1-6.7-8.7   C30.1,42.4,26.3,42.3,23,40.9z"/></g><g><path d="M49.4,52.6c-0.7,0-1.5,0-2.2-0.1c-1.7-0.2-3.3-0.7-4.9-1.4c-4.5-2.1-7.8-6.1-9.1-10.9l0-0.2c-0.3-1.4-0.5-2.7-0.5-4.1   c0-5.4,2.6-10.5,7-13.6c2.9-2.1,6.3-3.2,9.8-3.2c4,0,7.8,1.4,10.8,3.9c3.8,3.2,6,7.9,6,12.8c0,1.2-0.1,2.3-0.4,3.5   c-0.1,0.4-0.2,0.9-0.3,1.3c-1.3,4.6-4.6,8.4-9,10.4c-1.1,0.5-2.3,0.9-3.5,1.2C51.8,52.5,50.6,52.6,49.4,52.6z M35,39.4   c0,0.1,0,0.2,0.1,0.2c1.1,4.2,4,7.7,8,9.5c1.4,0.6,2.9,1.1,4.3,1.3c1.8,0.2,3.4,0.2,5.1-0.2c1.1-0.2,2.1-0.6,3.1-1   c3.8-1.8,6.7-5.1,7.9-9.2c0.1-0.4,0.2-0.8,0.3-1.1c0.2-1,0.3-2,0.3-3.1c0-4.4-1.9-8.5-5.2-11.3c-2.7-2.2-6-3.5-9.5-3.5   c-3.1,0-6.1,1-8.6,2.8c-3.8,2.8-6.1,7.2-6.1,12C34.6,37,34.8,38.3,35,39.4z"/></g><g><path d="M50.8,85.3c-0.2,0-0.5,0-0.7,0h-1.4c-6.9,0-12.8,0-17.3-1.6c-5.1-1.8-7.6-5.7-7.6-11.7c0-1.6,0.2-3.2,0.5-4.7   c1.9-8.6,9-15.7,18.2-18.1l0.3-0.1l0.3,0.2c1.4,0.6,2.9,1.1,4.3,1.3c1.8,0.2,3.4,0.2,5.1-0.2c1.1-0.2,2.1-0.6,3.1-1l0.3-0.2   l0.4,0.1c9.2,2.4,16.3,9.5,18.2,18.1c0.3,1.5,0.5,3.1,0.5,4.7c0,6.1-2.5,9.9-7.6,11.7C63,85.3,57.4,85.3,50.8,85.3z M49.4,83.3h0.7   c6.4,0,12.4,0,16.6-1.5c4.4-1.6,6.3-4.6,6.3-9.8c0-1.4-0.2-2.9-0.5-4.3c-1.7-7.8-8.1-14.3-16.4-16.5c-1,0.5-2.1,0.8-3.2,1   c-1.9,0.4-3.8,0.5-5.8,0.2c-1.6-0.2-3.1-0.6-4.6-1.3c-8.3,2.3-14.7,8.7-16.4,16.5c-0.3,1.4-0.5,2.9-0.5,4.3c0,5.2,1.9,8.3,6.3,9.8   c4.2,1.5,10.2,1.5,16.6,1.5H49.4z"/></g></svg>