<?xml version="1.0" ?><svg id="Layer_1" style="enable-background:new 0 0 128 128;" version="1.1" viewBox="0 0 128 128" xml:space="preserve" xmlns="http://www.w3.org/2000/svg" xmlns:xlink="http://www.w3.org/1999/xlink"><g><path d="M116.1,92.3C116.1,92.3,116.1,92.3,116.1,92.3l0-48.4c0,0,0,0,0,0v-0.8c0-4.7-3.8-8.6-8.6-8.6H92.3   c-3.4-5-7.6-9.1-12.4-9.1H52.6c-4.8,0-9,4.1-12.4,9.1H23.1c-4.7,0-8.6,3.8-8.6,8.6v5.3c0,0,0,0,0,0.1v39.2c0,0,0,0,0,0.1v5.3   c0,4.7,3.8,8.6,8.6,8.6h84.4c4.7,0,8.6-3.8,8.6-8.6V92.3z M52.6,29.3h27.4c2.5,0,5.2,2.2,7.7,5.3H44.9C47.4,31.4,50,29.3,52.6,29.3   z M42.6,68.6c0-13,10.2-23.6,22.7-23.6c12.5,0,22.7,10.6,22.7,23.6c0,13-10.2,23.6-22.7,23.6C52.8,92.2,42.6,81.6,42.6,68.6z    M45.6,50.4c-4.2,4.8-6.8,11.2-6.8,18.2c0,6.6,2.3,12.6,6,17.4H18.3V50.4H45.6z M91.8,68.6c0-7-2.6-13.4-6.8-18.2h27.3v35.6H85.8   C89.5,81.2,91.8,75.2,91.8,68.6z M112.3,46.6H81.1c-4.4-3.4-9.9-5.4-15.8-5.4s-11.4,2-15.8,5.4H18.3V44c0-3.1,2.5-5.6,5.6-5.6h82.8   c3.1,0,5.6,2.5,5.6,5.6V46.6z M106.7,97.9H23.9c-3.1,0-5.6-2.5-5.6-5.6v-2.6h30.2c4.6,3.9,10.5,6.3,16.8,6.3s12.3-2.4,16.8-6.3   h30.2v2.6C112.3,95.4,109.8,97.9,106.7,97.9z"/><path d="M65.3,88c10.4,0,18.8-8.7,18.8-19.4s-8.4-19.4-18.8-19.4s-18.8,8.7-18.8,19.4S54.9,88,65.3,88z M65.3,52.9   c8.3,0,15.1,7,15.1,15.7c0,8.6-6.8,15.7-15.1,15.7c-8.3,0-15.1-7-15.1-15.7C50.2,59.9,57,52.9,65.3,52.9z"/><path d="M108.3,41.2h-9.6c-1,0-1.9,0.8-1.9,1.9c0,1,0.8,1.9,1.9,1.9h9.6c1,0,1.9-0.8,1.9-1.9C110.2,42.1,109.3,41.2,108.3,41.2z"/><circle cx="26.9" cy="41.9" r="2.7"/><path d="M69.4,59.8C69.4,59.8,69.4,59.8,69.4,59.8c0,0,4,0.1,5.1,5.5c0.2,0.9,1,1.5,1.8,1.5c0.1,0,0.2,0,0.4,0   c1-0.2,1.7-1.2,1.5-2.2c-1.4-6.7-6.3-8.5-8.7-8.5c0,0,0,0,0,0c-1,0-1.9,0.8-1.9,1.9C67.5,59,68.4,59.8,69.4,59.8z"/></g></svg>